Gait_normal_05_analogdata.mot
version=1
nRows=59
nColumns=19
inDegrees=yes
endheader
time	1_ground_force_vx	1_ground_force_vy	1_ground_force_vz	1_ground_force_px	1_ground_force_py	1_ground_force_pz	1_ground_torque_x	1_ground_torque_y	1_ground_torque_z	2_ground_force_vx	2_ground_force_vy	2_ground_force_vz	2_ground_force_px	2_ground_force_py	2_ground_force_pz	2_ground_torque_x	2_ground_torque_y	2_ground_torque_z
0.225000	-35.070752	474.677643	-92.659399	-0.156009	0.000000	-0.479385	0.028383	-0.384155	0.074989	0.000000	0.000000	-0.000000	-0.200000	0.000000	0.302000	0.000000	0.000000	-0.000000
0.226000	-36.585210	478.176849	-91.951650	-0.155566	0.000000	-0.478454	0.029725	-0.388513	0.074710	0.000000	0.000000	-0.000000	-0.200000	0.000000	0.302000	0.000000	0.000000	-0.000000
0.227000	-37.208814	485.175323	-92.040121	-0.155928	0.000000	-0.476751	0.019761	-0.257672	0.048882	0.000000	0.000000	-0.000000	-0.200000	0.000000	0.302000	0.000000	0.000000	-0.000000
0.228000	-38.456014	489.724304	-92.747870	-0.155854	0.000000	-0.476279	0.043501	-0.553976	0.104916	0.000000	0.000000	-0.000000	-0.200000	0.000000	0.302000	0.000000	0.000000	-0.000000
0.229000	-38.901441	495.323059	-92.924811	-0.155891	0.000000	-0.475314	0.039739	-0.505989	0.094926	0.000000	0.000000	-0.000000	-0.200000	0.000000	0.302000	0.000000	0.000000	-0.000000
0.230000	-39.079614	496.722748	-92.924811	-0.153924	0.000000	-0.476803	0.064164	-0.815558	0.152571	0.000000	0.000000	-0.000000	-0.200000	0.000000	0.302000	0.000000	0.000000	-0.000000
0.231000	-39.614129	497.772522	-92.305525	-0.152760	0.000000	-0.478830	0.062795	-0.789048	0.146319	0.000000	0.000000	-0.000000	-0.200000	0.000000	0.302000	0.000000	0.000000	-0.000000
0.232000	-40.148645	497.422607	-92.482466	-0.153430	0.000000	-0.481644	0.056600	-0.701242	0.130377	0.000000	0.000000	-0.000000	-0.200000	0.000000	0.302000	0.000000	0.000000	-0.000000
0.233000	-40.059556	496.022919	-91.420836	-0.153517	0.000000	-0.480893	0.040714	-0.504132	0.092915	0.000000	0.000000	-0.000000	-0.200000	0.000000	0.302000	0.000000	0.000000	-0.000000
0.234000	-39.703214	507.920288	-91.420836	-0.154183	0.000000	-0.477077	0.010468	-0.133918	0.024104	0.000000	0.000000	-0.000000	-0.200000	0.000000	0.302000	0.000000	0.000000	-0.000000
0.235000	-41.217672	512.819214	-92.747870	-0.154038	0.000000	-0.475538	0.024176	-0.300787	0.054400	0.000000	0.000000	-0.000000	-0.200000	0.000000	0.302000	0.000000	0.000000	-0.000000
0.236000	-41.128587	515.618591	-92.570937	-0.153894	0.000000	-0.476738	0.015180	-0.190311	0.034167	0.000000	0.000000	-0.000000	-0.200000	0.000000	0.302000	0.000000	0.000000	-0.000000
0.237000	-41.752187	513.169128	-92.305525	-0.153221	0.000000	-0.478155	0.042443	-0.521665	0.093834	0.000000	0.000000	-0.000000	-0.200000	0.000000	0.302000	0.000000	0.000000	-0.000000
0.238000	-41.663103	515.968506	-91.509307	-0.153173	0.000000	-0.477818	0.038560	-0.477533	0.084693	0.000000	0.000000	-0.000000	-0.200000	0.000000	0.302000	0.000000	0.000000	-0.000000
0.239000	-41.484929	521.917175	-91.774710	-0.152847	0.000000	-0.476624	0.017055	-0.214569	0.037730	0.000000	0.000000	-0.000000	-0.200000	0.000000	0.302000	0.000000	0.000000	-0.000000
0.240000	-42.643045	525.066467	-90.713080	-0.154278	0.000000	-0.475405	0.009139	-0.112532	0.019442	0.000000	0.000000	-0.000000	-0.200000	0.000000	0.302000	0.000000	0.000000	-0.000000
0.241000	-41.484930	540.463074	-90.536139	-0.154467	0.000000	-0.471165	-0.032429	0.422479	-0.070772	0.000000	0.000000	-0.000000	-0.200000	0.000000	0.302000	0.000000	0.000000	-0.000000
0.242000	-42.019445	536.263977	-92.747870	-0.154526	0.000000	-0.473412	-0.013998	0.178640	-0.030896	0.000000	0.000000	-0.000000	-0.200000	0.000000	0.302000	0.000000	0.000000	-0.000000
0.243000	-44.424764	538.013611	-91.509307	-0.153761	0.000000	-0.473533	0.030516	-0.369570	0.062859	0.000000	0.000000	-0.000000	-0.200000	0.000000	0.302000	0.000000	0.000000	-0.000000
0.244000	-42.464876	539.063354	-91.332366	-0.153785	0.000000	-0.474227	-0.021190	0.268991	-0.045575	0.000000	0.000000	-0.000000	-0.200000	0.000000	0.302000	0.000000	0.000000	-0.000000
0.245000	-41.930360	542.912537	-90.978491	-0.153844	0.000000	-0.474060	-0.004216	0.054586	-0.009147	0.000000	0.000000	-0.000000	-0.200000	0.000000	0.302000	0.000000	0.000000	-0.000000
0.246000	-42.019445	542.912537	-90.713080	-0.152732	0.000000	-0.473822	-0.012846	0.165978	-0.027733	0.000000	0.000000	-0.000000	-0.200000	0.000000	0.302000	0.000000	0.000000	-0.000000
0.247000	-41.306760	552.710388	-90.182265	-0.153438	0.000000	-0.472545	-0.046195	0.618120	-0.100855	0.000000	0.000000	-0.000000	-0.200000	0.000000	0.302000	0.000000	0.000000	-0.000000
0.248000	-41.663103	551.660583	-90.713080	-0.152881	0.000000	-0.473813	-0.014025	0.185701	-0.030536	0.000000	0.000000	-0.000000	-0.200000	0.000000	0.302000	0.000000	0.000000	-0.000000
0.249000	-42.286703	554.809875	-89.916861	-0.153440	0.000000	-0.472876	-0.041235	0.541012	-0.087681	0.000000	0.000000	-0.000000	-0.200000	0.000000	0.302000	0.000000	0.000000	-0.000000
0.250000	-42.019445	559.008972	-89.828391	-0.153781	0.000000	-0.472156	-0.043407	0.577466	-0.092794	0.000000	0.000000	-0.000000	-0.200000	0.000000	0.302000	0.000000	0.000000	-0.000000
0.251000	-42.910303	562.158264	-90.536139	-0.152661	0.000000	-0.471872	-0.013082	0.171382	-0.027601	0.000000	0.000000	-0.000000	-0.200000	0.000000	0.302000	0.000000	0.000000	-0.000000
0.252000	-43.266649	567.057190	-90.447677	-0.152864	0.000000	-0.471203	-0.016609	0.217683	-0.034721	0.000000	0.000000	-0.000000	-0.200000	0.000000	0.302000	0.000000	0.000000	-0.000000
0.253000	-43.890249	569.156738	-90.359206	-0.151881	0.000000	-0.471719	0.018443	-0.239170	0.037971	0.000000	0.000000	-0.000000	-0.200000	0.000000	0.302000	0.000000	0.000000	-0.000000
0.254000	-43.979333	570.206482	-90.270736	-0.150560	0.000000	-0.473285	0.000677	-0.008782	0.001390	0.000000	0.000000	-0.000000	-0.200000	0.000000	0.302000	0.000000	0.000000	-0.000000
0.255000	-45.404707	569.506653	-90.447677	-0.151790	0.000000	-0.475670	0.002979	-0.037361	0.005934	0.000000	0.000000	-0.000000	-0.200000	0.000000	0.302000	0.000000	0.000000	-0.000000
0.256000	-45.493791	572.306030	-89.386039	-0.151853	0.000000	-0.473711	-0.010349	0.130194	-0.020334	0.000000	0.000000	-0.000000	-0.200000	0.000000	0.302000	0.000000	0.000000	-0.000000
0.257000	-43.712076	580.704163	-90.447677	-0.152288	0.000000	-0.470917	-0.030159	0.400651	-0.062404	0.000000	0.000000	-0.000000	-0.200000	0.000000	0.302000	0.000000	0.000000	-0.000000
0.258000	-45.850137	586.302917	-90.447677	-0.151921	0.000000	-0.470436	-0.016497	0.210955	-0.032544	0.000000	0.000000	-0.000000	-0.200000	0.000000	0.302000	0.000000	0.000000	-0.000000
0.259000	-45.404706	589.802124	-91.509307	-0.152229	0.000000	-0.471047	-0.009560	0.124178	-0.019267	0.000000	0.000000	-0.000000	-0.200000	0.000000	0.302000	0.000000	0.000000	-0.000000
0.260000	-45.939222	587.352722	-91.066955	-0.151882	0.000000	-0.472053	0.001872	-0.023928	0.003710	0.000000	0.000000	-0.000000	-0.200000	0.000000	0.302000	0.000000	0.000000	-0.000000
0.261000	-45.671964	591.901672	-90.093795	-0.152113	0.000000	-0.471095	0.015650	-0.202820	0.030871	0.000000	0.000000	-0.000000	-0.200000	0.000000	0.302000	0.000000	0.000000	-0.000000
0.262000	-44.602933	595.050964	-91.155425	-0.150849	0.000000	-0.470705	-0.015369	0.205038	-0.031410	0.000000	0.000000	-0.000000	-0.200000	0.000000	0.302000	0.000000	0.000000	-0.000000
0.263000	-45.939222	596.450684	-90.182266	-0.152257	0.000000	-0.470733	0.004242	-0.055072	0.008327	0.000000	0.000000	-0.000000	-0.200000	0.000000	0.302000	0.000000	0.000000	-0.000000
0.264000	-43.890249	607.298279	-90.359206	-0.152320	0.000000	-0.468048	-0.033670	0.465877	-0.069317	0.000000	0.000000	-0.000000	-0.200000	0.000000	0.302000	0.000000	0.000000	-0.000000
0.265000	-44.781106	608.697998	-92.305526	-0.152496	0.000000	-0.467931	-0.013895	0.188875	-0.028642	0.000000	0.000000	-0.000000	-0.200000	0.000000	0.302000	0.000000	0.000000	-0.000000
0.266000	-46.028307	609.397827	-90.536140	-0.152539	0.000000	-0.468739	0.018884	-0.250018	0.037144	0.000000	0.000000	-0.000000	-0.200000	0.000000	0.302000	0.000000	0.000000	-0.000000
0.267000	-45.137449	611.847290	-89.562980	-0.151755	0.000000	-0.467983	-0.023706	0.321341	-0.047038	0.000000	0.000000	-0.000000	-0.200000	0.000000	0.302000	0.000000	0.000000	-0.000000
0.268000	-44.335676	614.296753	-89.739921	-0.152006	0.000000	-0.468926	-0.005292	0.073321	-0.010711	0.000000	0.000000	-0.000000	-0.200000	0.000000	0.302000	0.000000	0.000000	-0.000000
0.269000	-44.424764	614.646667	-89.032165	-0.151692	0.000000	-0.468450	-0.000774	0.010711	-0.001551	0.000000	0.000000	-0.000000	-0.200000	0.000000	0.302000	0.000000	0.000000	-0.000000
0.270000	-43.533907	622.344971	-88.412879	-0.151419	0.000000	-0.467672	-0.033616	0.480568	-0.068272	0.000000	0.000000	-0.000000	-0.200000	0.000000	0.302000	0.000000	0.000000	-0.000000
0.271000	-43.533907	616.396240	-89.916861	-0.151722	0.000000	-0.470228	-0.014933	0.211443	-0.030844	0.000000	0.000000	-0.000000	-0.200000	0.000000	0.302000	0.000000	0.000000	-0.000000
0.272000	-43.890249	622.694885	-89.297576	-0.152633	0.000000	-0.468206	-0.011559	0.163993	-0.023517	0.000000	0.000000	-0.000000	-0.200000	0.000000	0.302000	0.000000	0.000000	-0.000000
0.273000	-41.930361	629.343384	-88.412879	-0.152596	0.000000	-0.466900	-0.032889	0.493644	-0.069349	0.000000	0.000000	-0.000000	-0.200000	0.000000	0.302000	0.000000	0.000000	-0.000000
0.274000	-42.464876	631.093018	-88.589820	-0.152390	0.000000	-0.466551	-0.012596	0.187198	-0.026278	0.000000	0.000000	-0.000000	-0.200000	0.000000	0.302000	0.000000	0.000000	-0.000000
0.275000	-42.286703	634.242310	-88.501349	-0.152182	0.000000	-0.466368	-0.007798	0.116960	-0.016320	0.000000	0.000000	-0.000000	-0.200000	0.000000	0.302000	0.000000	0.000000	-0.000000
0.276000	-41.484930	636.691772	-87.970534	-0.151410	0.000000	-0.466295	-0.001572	0.024125	-0.003333	0.000000	0.000000	-0.000000	-0.200000	0.000000	0.302000	0.000000	0.000000	-0.000000
0.277000	-41.306761	635.991943	-88.501349	-0.150531	0.000000	-0.468120	0.009345	-0.143887	0.020023	0.000000	0.000000	-0.000000	-0.200000	0.000000	0.302000	0.000000	0.000000	-0.000000
0.278000	-41.039503	633.192566	-87.528189	-0.151223	0.000000	-0.470346	-0.011657	0.179856	-0.024862	0.000000	0.000000	-0.000000	-0.200000	0.000000	0.302000	0.000000	0.000000	-0.000000
0.279000	-40.415903	633.892395	-85.847273	-0.151757	0.000000	-0.468366	-0.023158	0.363217	-0.049190	0.000000	0.000000	-0.000000	-0.200000	0.000000	0.302000	0.000000	0.000000	-0.000000
0.280000	-38.366930	641.940613	-86.289618	-0.151931	0.000000	-0.466196	-0.031292	0.523558	-0.070377	0.000000	0.000000	-0.000000	-0.200000	0.000000	0.302000	0.000000	0.000000	-0.000000
0.281000	-40.237730	644.739990	-86.731963	-0.151614	0.000000	-0.465645	-0.003451	0.055297	-0.007439	0.000000	0.000000	-0.000000	-0.200000	0.000000	0.302000	0.000000	0.000000	-0.000000
0.282000	-39.168700	646.489624	-85.935744	-0.152134	0.000000	-0.465935	-0.021830	0.360317	-0.047896	0.000000	0.000000	-0.000000	-0.200000	0.000000	0.302000	0.000000	0.000000	-0.000000
0.283000	-39.346873	641.590698	-85.227988	-0.151688	0.000000	-0.467259	-0.012254	0.199812	-0.026543	0.000000	0.000000	-0.000000	-0.200000	0.000000	0.302000	0.000000	0.000000	-0.000000
